<?xml version="1.0" standalone="no"?><!DOCTYPE svg PUBLIC "-//W3C//DTD SVG 1.1//EN" "http://www.w3.org/Graphics/SVG/1.1/DTD/svg11.dtd"><svg t="1681885821185" class="icon" viewBox="0 0 1024 1024" version="1.1" xmlns="http://www.w3.org/2000/svg" p-id="14659" xmlns:xlink="http://www.w3.org/1999/xlink" width="18" height="18"><path d="M42.666667 106.666667a21.333333 21.333333 0 0 1 21.333333-21.333334h896a21.333333 21.333333 0 0 1 0 42.666667H64a21.333333 21.333333 0 0 1-21.333333-21.333333z m320 746.666666H64a21.333333 21.333333 0 0 0 0 42.666667h298.666667a21.333333 21.333333 0 0 0 0-42.666667z m0-384H64a21.333333 21.333333 0 0 0 0 42.666667h298.666667a21.333333 21.333333 0 0 0 0-42.666667z m576.413333 42.253334a143.333333 143.333333 0 0 1 42.253333 102c0 35.653333-2.813333 69.166667-37.406666 118.366666-33.333333 47.4-96.486667 109.586667-204.78 201.633334a21.333333 21.333333 0 0 1-27.626667 0C603.226667 841.54 540.066667 779.333333 506.74 731.953333 472.146667 682.753333 469.333333 649.24 469.333333 613.586667a144.266667 144.266667 0 0 1 256-91.246667 144.266667 144.266667 0 0 1 213.746667-10.753333z m-0.413333 102c0-56-45.573333-101.586667-101.586667-101.586667a101.933333 101.933333 0 0 0-92.36 59.22 21.333333 21.333333 0 0 1-38.773333 0A101.933333 101.933333 0 0 0 613.586667 512C557.573333 512 512 557.573333 512 613.586667c0 31.206667 2.06 54.6 29.64 93.82 29.78 42.36 86.713333 98.766667 183.693333 181.88 96.98-83.113333 153.913333-139.52 183.693334-181.88 27.58-39.22 29.64-62.613333 29.64-93.82z" fill="#1afa29" p-id="14660"></path></svg>